<?xml version="1.0" encoding="iso-8859-1"?>
<!-- Generator: Adobe Illustrator 19.0.0, SVG Export Plug-In . SVG Version: 6.00 Build 0)  -->
<svg xmlns="http://www.w3.org/2000/svg" xmlns:xlink="http://www.w3.org/1999/xlink" version="1.1" id="Capa_1" x="0px" y="0px" viewBox="0 0 512 512" style="enable-background:new 0 0 512 512;" xml:space="preserve" width="512px" height="512px">
<g>
	<g>
		<path d="M149.333,68.267H81.067c-4.71,0-8.533,3.814-8.533,8.533s3.823,8.533,8.533,8.533h68.267c4.71,0,8.533-3.814,8.533-8.533    S154.044,68.267,149.333,68.267z" fill="#0571c6"/>
	</g>
</g>
<g>
	<g>
		<path d="M166.4,119.467H81.067c-4.71,0-8.533,3.814-8.533,8.533s3.823,8.533,8.533,8.533H166.4c4.71,0,8.533-3.814,8.533-8.533    S171.11,119.467,166.4,119.467z" fill="#0571c6"/>
	</g>
</g>
<g>
	<g>
		<path d="M183.467,170.667h-102.4c-4.71,0-8.533,3.814-8.533,8.533s3.823,8.533,8.533,8.533h102.4c4.71,0,8.533-3.814,8.533-8.533    S188.177,170.667,183.467,170.667z" fill="#0571c6"/>
	</g>
</g>
<g>
	<g>
		<path d="M400.256,0H111.744C90.129,0,72.533,17.596,72.533,39.219v455.689c0,6.485,3.601,12.322,9.395,15.249    c5.794,2.927,12.621,2.33,18.159-1.766l160.034-130.483l152.115,130.722c3.004,2.236,6.562,3.371,10.138,3.371    c2.62,0,5.256-0.606,7.697-1.843c5.794-2.927,9.395-8.764,9.395-15.249V39.219C439.467,17.596,421.871,0,400.256,0z     M265.83,360.303c-1.596-1.365-3.584-2.057-5.564-2.057c-1.911,0-3.823,0.649-5.393,1.92L89.6,494.908V39.219    c0-12.22,9.933-22.153,22.144-22.153h288.512c12.211,0,22.144,9.933,22.144,22.153v283.426l0.469,172.646L265.83,360.303z" fill="#0571c6"/>
	</g>
</g>
<g>
	<g>
		<path d="M260.267,324.113c-4.71,0-8.533,3.814-8.533,8.533v34.133c0,4.719,3.823,8.533,8.533,8.533s8.533-3.814,8.533-8.533    v-34.133C268.8,327.927,264.977,324.113,260.267,324.113z" fill="#0571c6"/>
	</g>
</g>
<g>
</g>
<g>
</g>
<g>
</g>
<g>
</g>
<g>
</g>
<g>
</g>
<g>
</g>
<g>
</g>
<g>
</g>
<g>
</g>
<g>
</g>
<g>
</g>
<g>
</g>
<g>
</g>
<g>
</g>
</svg>
